<?xml version="1.0" standalone="no"?>
<svg viewBox="0 0 200 200" xmlns="http://www.w3.org/2000/svg">
  <path fill="#FFD6E8" d="M37,-67.8C44.8,-59.6,45.7,-43.2,54.6,-30.6C63.6,-17.9,80.6,-9,85.6,2.9C90.6,14.7,83.6,29.5,74.7,42.3C65.9,55.1,55.1,66,42.4,69.4C29.6,72.7,14.8,68.6,2.1,64.9C-10.6,61.3,-21.2,58.2,-31.2,53.2C-41.3,48.3,-50.9,41.6,-59.7,32.4C-68.5,23.2,-76.5,11.6,-74.9,1C-73.2,-9.7,-61.8,-19.4,-52.4,-27.5C-42.9,-35.5,-35.4,-41.9,-27,-49.7C-18.6,-57.6,-9.3,-66.9,2.7,-71.5C14.6,-76.1,29.2,-76,37,-67.8Z" transform="translate(100 100)" />
</svg>
